<svg width="17" height="19" viewBox="0 0 17 19" fill="none" xmlns="http://www.w3.org/2000/svg">
<path fill-rule="evenodd" clip-rule="evenodd" d="M6.11096 9.6734C6.16611 9.6181 6.23163 9.57424 6.30377 9.5443C6.3759 9.51437 6.45324 9.49896 6.53133 9.49896C6.60943 9.49896 6.68676 9.51437 6.7589 9.5443C6.83103 9.57424 6.89656 9.6181 6.95171 9.6734L8.31258 11.0355L9.67346 9.6734C9.78495 9.56191 9.93616 9.49927 10.0938 9.49927C10.2515 9.49927 10.4027 9.56191 10.5142 9.6734C10.6257 9.78489 10.6883 9.9361 10.6883 10.0938C10.6883 10.2514 10.6257 10.4027 10.5142 10.5141L9.15215 11.875L10.5142 13.2359C10.6257 13.3474 10.6883 13.4986 10.6883 13.6563C10.6883 13.8139 10.6257 13.9652 10.5142 14.0766C10.4027 14.1881 10.2515 14.2508 10.0938 14.2508C9.93616 14.2508 9.78495 14.1881 9.67346 14.0766L8.31258 12.7146L6.95171 14.0766C6.84022 14.1881 6.68901 14.2508 6.53133 14.2508C6.37366 14.2508 6.22245 14.1881 6.11096 14.0766C5.99947 13.9652 5.93683 13.8139 5.93683 13.6563C5.93683 13.4986 5.99947 13.3474 6.11096 13.2359L7.47302 11.875L6.11096 10.5141C6.05567 10.459 6.0118 10.3935 5.98186 10.3213C5.95193 10.2492 5.93652 10.1719 5.93652 10.0938C5.93652 10.0157 5.95193 9.93834 5.98186 9.86621C6.0118 9.79407 6.05567 9.72855 6.11096 9.6734Z" fill="#9F9F9F"/>
<path d="M8.3125 1.1875C9.09986 1.1875 9.85497 1.50028 10.4117 2.05703C10.9685 2.61378 11.2812 3.36889 11.2812 4.15625V4.75H5.34375V4.15625C5.34375 3.36889 5.65653 2.61378 6.21328 2.05703C6.77003 1.50028 7.52514 1.1875 8.3125 1.1875ZM12.4688 4.75V4.15625C12.4688 3.05394 12.0309 1.99679 11.2514 1.21734C10.472 0.437889 9.41481 0 8.3125 0C7.21019 0 6.15304 0.437889 5.37359 1.21734C4.59414 1.99679 4.15625 3.05394 4.15625 4.15625V4.75H0V16.625C0 17.2549 0.250223 17.859 0.695621 18.3044C1.14102 18.7498 1.74511 19 2.375 19H14.25C14.8799 19 15.484 18.7498 15.9294 18.3044C16.3748 17.859 16.625 17.2549 16.625 16.625V4.75H12.4688ZM1.1875 5.9375H15.4375V16.625C15.4375 16.9399 15.3124 17.242 15.0897 17.4647C14.867 17.6874 14.5649 17.8125 14.25 17.8125H2.375C2.06006 17.8125 1.75801 17.6874 1.53531 17.4647C1.31261 17.242 1.1875 16.9399 1.1875 16.625V5.9375Z" fill="#9F9F9F"/>
</svg>
